<svg xmlns="http://www.w3.org/2000/svg" xmlns:xlink="http://www.w3.org/1999/xlink" version="1.1" x="0px" y="0px" viewBox="521.5 -211.424 100 125" enable-background="new 521.5 -211.424 100 100" xml:space="preserve"><path d="M525.542-177.795"/><path d="M588.15-162.503l-4.795,4.795l2.071,2.071l-9.915,9.914c-0.586-0.58-1.226-1.104-1.902-1.579v-58.048h1.438v-3.699h-19.523  v3.699h1.439v58.048c-3.762,2.631-6.229,6.987-6.229,11.925c0,5.461,3.012,10.213,7.461,12.701v5.486h-9.668v3.391h33.516v-3.391  h-9.668v-5.486c4.449-2.488,7.461-7.24,7.461-12.701c0-2.933-0.875-5.657-2.368-7.941l10.14-10.139l2.07,2.07l4.794-4.794  L588.15-162.503z"/><text x="521.5" y="-96.424" fill="#000000" font-size="5px" font-weight="bold" font-family="'Helvetica Neue', Helvetica, Arial-Unicode, Arial, Sans-serif">Created by Rohan Gupta</text><text x="521.5" y="-91.424" fill="#000000" font-size="5px" font-weight="bold" font-family="'Helvetica Neue', Helvetica, Arial-Unicode, Arial, Sans-serif">from the Noun Project</text></svg>