<svg xmlns="http://www.w3.org/2000/svg" xmlns:xlink="http://www.w3.org/1999/xlink" version="1.1" x="0px" y="0px" viewBox="0 0 100 125" enable-background="new 0 0 100 100" xml:space="preserve"><path d="M88.3,38.3l-0.6-0.6L74.2,22.1l-0.4-0.5l-0.2-0.2h-0.3h-0.6L52,21.5l-0.9,0l-0.4,0l-0.2,0.4l-0.3,0.8  l-5.7,12.5l-0.3,0.6l-0.6-0.3l-3.5-1.6l-0.6-0.3l-0.3-0.1L39,33.6l-0.6,0.3l-18.8,8.6l-0.8,0.4L18.5,43v0.4v0.9V66v0.9v0.4l0.4,0.2  l0.8,0.4l18.8,8.6l0.6,0.3l0.3,0.1l0.3-0.1l0.6-0.3l18.8-8.6l0.8-0.4l0.4-0.2v-0.4V66v-4.5v-0.7l0.7,0l16.5-0.1l0.9,0l0.4,0l0.2-0.4  l0.4-0.8l9-19.8l0.4-0.8l0.2-0.4L88.3,38.3z M72.2,24.4L84.1,38l-18,0.1L54.2,24.5L72.2,24.4z M38.3,73.1l-16.8-7.7V45.9l16.8,7.7  V73.1z M39.3,51.8l-16.4-7.5l16.4-7.5l16.4,7.5L39.3,51.8z M57.1,65.4l-16.8,7.7V53.6l16.8-7.7V65.4z M46.6,37.9l5.7-12.6l12.1,13.9  L59.1,51v-7.3L46.6,37.9z M76.6,57.8l-17.5,0.1v-2l7.1-15.7L84.7,40L76.6,57.8z"/><path d="M51.9,32.2c-0.5,1-0.3,2.4,0.3,3.1c0.6,0.7,1.5,0.4,2-0.6c0.5-1,0.3-2.4-0.3-3.1  C53.3,30.9,52.4,31.1,51.9,32.2z"/><path d="M60.4,40.9c0.5-1,0.3-2.4-0.3-3.1c-0.6-0.7-1.5-0.4-2,0.6c-0.5,1-0.3,2.4,0.3,3.1  C59,42.2,59.9,41.9,60.4,40.9z"/><path d="M71.8,28.3c1-0.1,1.2-0.8,0.5-1.6c-0.7-0.8-2.1-1.5-3-1.4c-1,0.1-1.2,0.8-0.5,1.6  C69.5,27.7,70.8,28.3,71.8,28.3z"/><path d="M63.1,27.2c-0.7-0.8-2.1-1.5-3-1.4c-1,0.1-1.2,0.8-0.5,1.6c0.7,0.8,2.1,1.5,3,1.4  C63.5,28.8,63.8,28,63.1,27.2z"/><path d="M72.1,30.8c0.7,0.8,2.1,1.5,3,1.4c1-0.1,1.2-0.8,0.5-1.6c-0.7-0.8-2.1-1.5-3-1.4  C71.6,29.2,71.4,30,72.1,30.8z"/><path d="M66.4,31.2c-0.7-0.8-2.1-1.5-3-1.4c-1,0.1-1.2,0.8-0.5,1.6c0.7,0.8,2.1,1.5,3,1.4  C66.8,32.7,67.1,32,66.4,31.2z"/><path d="M75.4,34.8c0.7,0.8,2.1,1.5,3,1.4c1-0.1,1.2-0.8,0.5-1.6c-0.7-0.8-2.1-1.5-3-1.4  C74.9,33.2,74.7,33.9,75.4,34.8z"/><path d="M69.2,36.7c1-0.1,1.2-0.8,0.5-1.6c-0.7-0.8-2.1-1.5-3-1.4c-1,0.1-1.2,0.8-0.5,1.6  C66.9,36.2,68.2,36.8,69.2,36.7z"/><path d="M69.6,49.1c-0.5,1-0.1,1.9,0.9,1.9c0.9,0,2.1-0.8,2.5-1.8c0.5-1,0.1-1.9-0.9-1.9  C71.2,47.2,70.1,48,69.6,49.1z"/><path d="M68.2,46c0.9,0,2.1-0.8,2.5-1.8c0.5-1,0.1-1.9-0.9-1.9c-0.9,0-2.1,0.8-2.5,1.8C66.9,45.1,67.3,46,68.2,46z"/><path d="M63,53.8c-0.5,1-0.1,1.9,0.9,1.9c0.9,0,2.1-0.8,2.5-1.8c0.5-1,0.1-1.9-0.9-1.9C64.6,52,63.4,52.8,63,53.8z"/><path d="M77.1,46.2c0.9,0,2.1-0.8,2.5-1.8c0.5-1,0.1-1.9-0.9-1.9c-0.9,0-2.1,0.8-2.5,1.8  C75.8,45.3,76.1,46.2,77.1,46.2z"/><path d="M71.8,54c-0.5,1-0.1,1.9,0.9,1.9c0.9,0,2.1-0.8,2.5-1.8c0.5-1,0.1-1.9-0.9-1.9C73.4,52.2,72.3,53,71.8,54z"/><ellipse cx="39.3" cy="44" rx="2.2" ry="1.8"/><ellipse cx="54" cy="53.1" rx="1.9" ry="2.4"/><ellipse cx="49" cy="59.4" rx="1.9" ry="2.4"/><ellipse cx="44.1" cy="65.8" rx="1.9" ry="2.4"/><path d="M24.6,55.6c1,0,1.9-1.1,1.9-2.4c0-1.3-0.8-2.4-1.9-2.4c-1,0-1.9,1.1-1.9,2.4C22.8,54.5,23.6,55.6,24.6,55.6z  "/><ellipse cx="34.5" cy="65.8" rx="1.9" ry="2.4"/><text x="0" y="115" fill="#000000" font-size="5px" font-weight="bold" font-family="'Helvetica Neue', Helvetica, Arial-Unicode, Arial, Sans-serif">Created by Leadway Global LLC</text><text x="0" y="120" fill="#000000" font-size="5px" font-weight="bold" font-family="'Helvetica Neue', Helvetica, Arial-Unicode, Arial, Sans-serif">from the Noun Project</text></svg>